<svg width="105" height="62" viewBox="0 0 105 62" fill="none" xmlns="http://www.w3.org/2000/svg">
<path d="M6.67578 50.8398C6.30078 52.043 5.78125 53.0859 5.11719 53.9688C4.45312 54.8516 3.68359 55.5977 2.80859 56.207L2.60938 56.0195C3.46875 55.3242 4.16406 54.5273 4.69531 53.6289C5.23438 52.7227 5.61328 51.7461 5.83203 50.6992C5.73828 50.6992 5.63281 50.7031 5.51562 50.7109C5.39844 50.7188 5.27734 50.7266 5.15234 50.7344C5.02734 50.7422 4.90234 50.75 4.77734 50.7578C4.66016 50.7656 4.55859 50.7734 4.47266 50.7812C4.41016 50.7891 4.32812 50.7969 4.22656 50.8047C4.125 50.8125 4.01562 50.8242 3.89844 50.8398C3.78906 50.8477 3.67578 50.8633 3.55859 50.8867C3.44141 50.9023 3.33203 50.9219 3.23047 50.9453L2.87891 50.2188C2.94141 50.2344 3.02344 50.25 3.125 50.2656C3.22656 50.2812 3.33203 50.2969 3.44141 50.3125C3.55859 50.3203 3.67578 50.3281 3.79297 50.3359C3.91797 50.3438 4.03125 50.3477 4.13281 50.3477C4.32812 50.3477 4.53125 50.3438 4.74219 50.3359C4.96094 50.3281 5.17969 50.3125 5.39844 50.2891C5.61719 50.2656 5.82812 50.2344 6.03125 50.1953C6.23438 50.1562 6.41797 50.1133 6.58203 50.0664L6.79297 50.2891C7.23828 50.3047 7.67578 50.2852 8.10547 50.2305C8.54297 50.168 8.97266 50.0898 9.39453 49.9961L9.65234 50.2656C9.48047 50.9609 9.25781 51.6328 8.98438 52.2812C8.71094 52.9219 8.39844 53.5273 8.04688 54.0977C7.69531 54.6602 7.30469 55.1758 6.875 55.6445C6.45312 56.1133 6 56.5195 5.51562 56.8633L5.31641 56.6523C5.75391 56.2852 6.15625 55.8594 6.52344 55.375C6.89062 54.8906 7.21484 54.3828 7.49609 53.8516C7.78516 53.3125 8.02734 52.7656 8.22266 52.2109C8.41797 51.6562 8.5625 51.1211 8.65625 50.6055C8.35938 50.6055 8.02344 50.6289 7.64844 50.6758C7.27344 50.7148 6.94922 50.7695 6.67578 50.8398ZM11.4922 55.9961C11.4922 56.2383 11.4844 56.5156 11.4688 56.8281C11.4609 57.1406 11.4492 57.4531 11.4336 57.7656C11.418 58.0781 11.3984 58.375 11.375 58.6562C11.3516 58.9375 11.3242 59.168 11.293 59.3477L10.8008 59.4062C10.7852 59.2734 10.7695 59.1055 10.7539 58.9023C10.7461 58.707 10.7383 58.4922 10.7305 58.2578C10.7227 58.0312 10.7148 57.7969 10.707 57.5547C10.707 57.3125 10.707 57.0781 10.707 56.8516V49.4336C10.707 49.168 10.5859 48.957 10.3438 48.8008C10.1094 48.6367 9.74219 48.4961 9.24219 48.3789L9.37109 48.0625C9.76953 48.1094 10.1641 48.1719 10.5547 48.25C10.9531 48.3203 11.3086 48.3867 11.6211 48.4492C11.5898 48.5898 11.5586 48.75 11.5273 48.9297C11.5039 49.1094 11.4922 49.2773 11.4922 49.4336V53.0547C11.8203 53.0391 12.1836 53.0117 12.582 52.9727C12.9883 52.9258 13.4023 52.8711 13.8242 52.8086L13.7188 53.5469C13.5625 53.5391 13.3867 53.5352 13.1914 53.5352C12.9961 53.5352 12.7969 53.5352 12.5938 53.5352C12.3984 53.5352 12.2031 53.5391 12.0078 53.5469C11.8203 53.5469 11.6484 53.5469 11.4922 53.5469V55.9961ZM18.6172 53.4883C18.8125 53.6602 19.0078 53.8281 19.2031 53.9922C19.4062 54.1484 19.6133 54.3047 19.8242 54.4609C20.043 54.6172 20.2773 54.7773 20.5273 54.9414C20.7773 55.1055 21.0508 55.2812 21.3477 55.4688L20.668 56.0781C20.457 55.8594 20.2578 55.6562 20.0703 55.4688C19.8828 55.2812 19.6953 55.1016 19.5078 54.9297C19.3281 54.75 19.1406 54.5703 18.9453 54.3906C18.7578 54.2031 18.5547 54 18.3359 53.7812C17.7734 54.3906 17.1797 54.9297 16.5547 55.3984C15.9297 55.8672 15.332 56.2539 14.7617 56.5586L14.5391 56.3242C15.0312 56.0195 15.5039 55.6797 15.957 55.3047C16.418 54.9297 16.8477 54.5234 17.2461 54.0859C17.6445 53.6484 18.0078 53.1914 18.3359 52.7148C18.6641 52.2305 18.9531 51.7305 19.2031 51.2148C19.0859 51.2148 18.9375 51.2188 18.7578 51.2266C18.5781 51.2344 18.3906 51.2461 18.1953 51.2617C18 51.2695 17.8086 51.2773 17.6211 51.2852C17.4414 51.293 17.2969 51.2969 17.1875 51.2969C17.1016 51.2969 16.9922 51.3047 16.8594 51.3203C16.7266 51.3281 16.582 51.3398 16.4258 51.3555C16.2773 51.3711 16.125 51.3867 15.9688 51.4023C15.8125 51.418 15.668 51.4375 15.5352 51.4609L15.0781 50.7227C15.2812 50.7617 15.5352 50.793 15.8398 50.8164C16.1445 50.8398 16.4258 50.8516 16.6836 50.8516C16.9727 50.8516 17.2695 50.8477 17.5742 50.8398C17.8867 50.832 18.1914 50.8164 18.4883 50.793C18.793 50.7695 19.0781 50.7422 19.3438 50.7109C19.6172 50.6719 19.8633 50.625 20.082 50.5703L20.3516 50.8398C20.1328 51.3242 19.875 51.7852 19.5781 52.2227C19.2891 52.6602 18.9688 53.082 18.6172 53.4883ZM19.3789 49.5742C19.1055 49.5664 18.8281 49.5703 18.5469 49.5859C18.2734 49.5938 18.0312 49.5977 17.8203 49.5977C17.7656 49.5977 17.6914 49.6016 17.5977 49.6094C17.5117 49.6094 17.4141 49.6133 17.3047 49.6211C17.1953 49.6211 17.082 49.6289 16.9648 49.6445C16.8477 49.6523 16.7383 49.6641 16.6367 49.6797L16.2852 48.9883C16.4727 49.0273 16.6875 49.0664 16.9297 49.1055C17.1797 49.1445 17.4258 49.1641 17.668 49.1641C17.8633 49.1641 18.1289 49.1523 18.4648 49.1289C18.8008 49.0977 19.1562 49.0586 19.5312 49.0117L19.3789 49.5742ZM21.1953 48.0625C21.5938 48.1094 21.9883 48.1719 22.3789 48.25C22.7773 48.3203 23.1289 48.3867 23.4336 48.4492C23.4023 48.5898 23.375 48.75 23.3516 48.9297C23.3281 49.1094 23.3164 49.2773 23.3164 49.4336V55.9961C23.3164 56.2383 23.3086 56.5156 23.293 56.8281C23.2852 57.1406 23.2734 57.4531 23.2578 57.7656C23.2422 58.0781 23.2227 58.375 23.1992 58.6562C23.1758 58.9375 23.1484 59.168 23.1172 59.3477L22.625 59.4062C22.6094 59.2734 22.5938 59.1055 22.5781 58.9023C22.5703 58.707 22.5625 58.4922 22.5547 58.2578C22.5469 58.0312 22.5391 57.7969 22.5312 57.5547C22.5312 57.3125 22.5312 57.0781 22.5312 56.8516V49.4336C22.5312 49.168 22.4102 48.957 22.168 48.8008C21.9336 48.6367 21.5664 48.4961 21.0664 48.3789L21.1953 48.0625ZM36.0898 55.375C36.3945 55.3984 36.6758 55.4688 36.9336 55.5859C37.1992 55.6953 37.4258 55.8359 37.6133 56.0078C37.8086 56.1797 37.957 56.3789 38.0586 56.6055C38.168 56.832 38.2227 57.0742 38.2227 57.332C38.2227 57.6133 38.1602 57.875 38.0352 58.1172C37.9102 58.3594 37.7344 58.5664 37.5078 58.7383C37.2891 58.918 37.0312 59.0547 36.7344 59.1484C36.4375 59.25 36.1133 59.3008 35.7617 59.3008C35.4102 59.3008 35.082 59.25 34.7773 59.1484C34.4805 59.0547 34.2227 58.918 34.0039 58.7383C33.793 58.5664 33.625 58.3594 33.5 58.1172C33.375 57.875 33.3125 57.6133 33.3125 57.332C33.3125 57.0664 33.3672 56.8203 33.4766 56.5938C33.5938 56.3594 33.75 56.1562 33.9453 55.9844C34.1484 55.8047 34.3867 55.6602 34.6602 55.5508C34.9336 55.4414 35.2305 55.3789 35.5508 55.3633C35.5352 55.2695 35.4883 55.1953 35.4102 55.1406C35.3398 55.0781 35.2188 55.0195 35.0469 54.9648L35.1641 54.7305C35.3438 54.7695 35.5156 54.8047 35.6797 54.8359C35.8516 54.8672 36.0352 54.9023 36.2305 54.9414C36.1992 55.0039 36.1719 55.0703 36.1484 55.1406C36.125 55.2109 36.1055 55.2891 36.0898 55.375ZM37.3672 57.2734C37.3672 57.0547 37.3242 56.8516 37.2383 56.6641C37.1602 56.4766 37.0469 56.3125 36.8984 56.1719C36.7578 56.0312 36.5859 55.9219 36.3828 55.8438C36.1875 55.7578 35.9766 55.7148 35.75 55.7148C35.5234 55.7148 35.3086 55.7578 35.1055 55.8438C34.9102 55.9219 34.7383 56.0312 34.5898 56.1719C34.4492 56.3125 34.3359 56.4766 34.25 56.6641C34.1719 56.8516 34.1328 57.0547 34.1328 57.2734C34.1328 57.4844 34.1719 57.6836 34.25 57.8711C34.3359 58.0586 34.4492 58.2227 34.5898 58.3633C34.7383 58.5039 34.9102 58.6133 35.1055 58.6914C35.3086 58.7695 35.5234 58.8086 35.75 58.8086C35.9844 58.8086 36.1992 58.7695 36.3945 58.6914C36.5898 58.6133 36.7578 58.5039 36.8984 58.3633C37.0469 58.2227 37.1602 58.0586 37.2383 57.8711C37.3242 57.6836 37.3672 57.4844 37.3672 57.2734ZM36.2305 48.0625C36.6289 48.1094 37.0234 48.1719 37.4141 48.25C37.8125 48.3203 38.168 48.3867 38.4805 48.4492C38.4414 48.5898 38.4102 48.75 38.3867 48.9297C38.3633 49.1094 38.3516 49.2773 38.3516 49.4336V53.1133C38.3516 53.2539 38.3438 53.418 38.3281 53.6055C38.3203 53.7852 38.3047 53.9688 38.2812 54.1562C38.2656 54.3359 38.2461 54.5078 38.2227 54.6719C38.207 54.8281 38.1875 54.957 38.1641 55.0586L37.6484 55.1289C37.625 54.9648 37.6055 54.75 37.5898 54.4844C37.5742 54.2109 37.5664 53.9688 37.5664 53.7578V49.4336C37.5664 49.168 37.4453 48.957 37.2031 48.8008C36.9688 48.6367 36.6016 48.4961 36.1016 48.3789L36.2305 48.0625ZM32.9961 49.7148C33.3242 49.7539 33.625 49.832 33.8984 49.9492C34.1719 50.0664 34.4062 50.2188 34.6016 50.4062C34.8047 50.5859 34.9609 50.7969 35.0703 51.0391C35.1797 51.2812 35.2344 51.5391 35.2344 51.8125C35.2344 52.1172 35.168 52.3984 35.0352 52.6562C34.9023 52.9141 34.7188 53.1367 34.4844 53.3242C34.25 53.5117 33.9727 53.6602 33.6523 53.7695C33.3398 53.8711 32.9961 53.9219 32.6211 53.9219C32.2461 53.9219 31.8984 53.8711 31.5781 53.7695C31.2656 53.6602 30.9922 53.5117 30.7578 53.3242C30.5312 53.1367 30.3516 52.9141 30.2188 52.6562C30.0938 52.3984 30.0312 52.1172 30.0312 51.8125C30.0312 51.5234 30.0898 51.2539 30.207 51.0039C30.332 50.7539 30.5039 50.5352 30.7227 50.3477C30.9414 50.1602 31.1953 50.0078 31.4844 49.8906C31.7812 49.7734 32.1055 49.707 32.457 49.6914C32.4414 49.5977 32.3984 49.5195 32.3281 49.457C32.2578 49.3945 32.1328 49.3359 31.9531 49.2812L32.0703 49.0469C32.25 49.0859 32.4258 49.1211 32.5977 49.1523C32.7695 49.1758 32.9531 49.2109 33.1484 49.2578C33.1172 49.3281 33.0859 49.4023 33.0547 49.4805C33.0312 49.5508 33.0117 49.6289 32.9961 49.7148ZM34.3906 51.7656C34.3906 51.5312 34.3438 51.3125 34.25 51.1094C34.1641 50.8984 34.043 50.7188 33.8867 50.5703C33.7305 50.4141 33.543 50.293 33.3242 50.207C33.1133 50.1133 32.8828 50.0664 32.6328 50.0664C32.3828 50.0664 32.1484 50.1133 31.9297 50.207C31.7188 50.293 31.5312 50.4141 31.3672 50.5703C31.2109 50.7188 31.0859 50.8984 30.9922 51.1094C30.9062 51.3125 30.8633 51.5312 30.8633 51.7656C30.8633 52 30.9062 52.2188 30.9922 52.4219C31.0859 52.625 31.2109 52.8008 31.3672 52.9492C31.5312 53.0977 31.7188 53.2148 31.9297 53.3008C32.1484 53.3867 32.3828 53.4297 32.6328 53.4297C32.8828 53.4297 33.1133 53.3867 33.3242 53.3008C33.543 53.2148 33.7305 53.0977 33.8867 52.9492C34.043 52.8008 34.1641 52.625 34.25 52.4219C34.3438 52.2188 34.3906 52 34.3906 51.7656ZM47.5625 56.7812C47.6875 56.2891 47.8047 55.7344 47.9141 55.1172C48.0234 54.5 48.1211 53.8828 48.207 53.2656C47.8555 53.3203 47.4844 53.375 47.0938 53.4297C46.7109 53.4766 46.332 53.5195 45.957 53.5586C45.5898 53.5977 45.2422 53.6328 44.9141 53.6641C44.5938 53.6953 44.3164 53.7188 44.082 53.7344C43.9648 53.75 43.8242 53.7656 43.6602 53.7812C43.4961 53.7969 43.3242 53.8125 43.1445 53.8281C42.9727 53.8438 42.7969 53.8633 42.6172 53.8867C42.4375 53.9023 42.2734 53.9219 42.125 53.9453L41.7148 53.2188C42.0273 53.2578 42.3398 53.2891 42.6523 53.3125C42.9727 53.3281 43.2578 53.332 43.5078 53.3242C43.8359 53.3164 44.1953 53.3008 44.5859 53.2773C44.9766 53.2539 45.3789 53.2266 45.793 53.1953C46.2148 53.1562 46.6367 53.1133 47.0586 53.0664C47.4805 53.0195 47.8828 52.9688 48.2656 52.9141C48.3438 52.3828 48.4023 51.8828 48.4414 51.4141C48.4883 50.9375 48.5195 50.5117 48.5352 50.1367C48.2383 50.1367 47.8945 50.1445 47.5039 50.1602C47.1211 50.168 46.7344 50.1797 46.3438 50.1953C45.9531 50.2031 45.5781 50.2188 45.2188 50.2422C44.8672 50.2578 44.5703 50.2695 44.3281 50.2773C44.2109 50.2852 44.0703 50.293 43.9062 50.3008C43.7422 50.3086 43.5664 50.3203 43.3789 50.3359C43.1992 50.3438 43.0195 50.3594 42.8398 50.3828C42.668 50.3984 42.5117 50.418 42.3711 50.4414L41.9609 49.6797C42.2734 49.7188 42.5859 49.7539 42.8984 49.7852C43.2109 49.8086 43.4922 49.8203 43.7422 49.8203C44.1719 49.8203 44.6406 49.8164 45.1484 49.8086C45.6562 49.8008 46.1641 49.7852 46.6719 49.7617C47.1797 49.7383 47.6719 49.7109 48.1484 49.6797C48.625 49.6406 49.043 49.5898 49.4023 49.5273L49.6133 49.7266C49.543 50.2656 49.4492 50.8516 49.332 51.4844C49.2227 52.1172 49.0977 52.75 48.957 53.3828C48.8242 54.0156 48.6797 54.625 48.5234 55.2109C48.3672 55.7969 48.2109 56.3164 48.0547 56.7695C48.0938 56.7617 48.1289 56.7578 48.1602 56.7578C48.1914 56.7578 48.2188 56.7578 48.2422 56.7578C48.7812 56.7266 49.293 56.6914 49.7773 56.6523C50.2617 56.6055 50.7188 56.5508 51.1484 56.4883L51.0312 57.2617C50.7188 57.2383 50.332 57.2266 49.8711 57.2266C49.418 57.2188 48.9258 57.2109 48.3945 57.2031C48.1758 57.2031 47.9023 57.207 47.5742 57.2148C47.2539 57.2148 46.9062 57.2227 46.5312 57.2383C46.1641 57.2461 45.7852 57.2578 45.3945 57.2734C45.0039 57.2891 44.6328 57.3047 44.2812 57.3203C43.9297 57.3281 43.6094 57.3398 43.3203 57.3555C43.0391 57.3711 42.8203 57.3828 42.6641 57.3906C42.3672 57.4062 42.0664 57.4258 41.7617 57.4492C41.4648 57.4648 41.1719 57.4922 40.8828 57.5312L40.5781 56.7109C40.9375 56.7578 41.2812 56.793 41.6094 56.8164C41.9453 56.832 42.293 56.8477 42.6523 56.8633C42.9023 56.8711 43.2305 56.875 43.6367 56.875C44.043 56.8672 44.4766 56.8594 44.9375 56.8516C45.4062 56.8438 45.8711 56.8359 46.332 56.8281C46.793 56.8125 47.2031 56.7969 47.5625 56.7812ZM60.9453 51.0977C61.2344 51.293 61.5703 51.5 61.9531 51.7188C62.3359 51.9375 62.7305 52.1523 63.1367 52.3633C63.543 52.5664 63.9453 52.7578 64.3438 52.9375C64.7422 53.1172 65.0977 53.2656 65.4102 53.3828L64.7188 54.0625C64.0859 53.5938 63.4141 53.1445 62.7031 52.7148C61.9922 52.2773 61.3164 51.8477 60.6758 51.4258C60.082 52.1367 59.4219 52.7617 58.6953 53.3008C57.9688 53.832 57.2266 54.2617 56.4688 54.5898L56.2344 54.3203C56.7344 54.0781 57.207 53.7969 57.6523 53.4766C58.0977 53.1562 58.5078 52.8125 58.8828 52.4453C59.2578 52.0781 59.5938 51.6953 59.8906 51.2969C60.1875 50.8906 60.4414 50.4844 60.6523 50.0781C60.6992 49.9844 60.7227 49.9141 60.7227 49.8672C60.7305 49.8125 60.6875 49.7461 60.5938 49.668C60.5234 49.6211 60.4414 49.5703 60.3477 49.5156C60.2539 49.4609 60.1094 49.3828 59.9141 49.2812L60.1133 49C60.4336 49.0859 60.7383 49.1758 61.0273 49.2695C61.3164 49.3555 61.6172 49.457 61.9297 49.5742C61.6406 50.0977 61.3125 50.6055 60.9453 51.0977ZM66.0312 57.3672C65.7188 57.3516 65.332 57.3438 64.8711 57.3438C64.418 57.3359 63.9258 57.3281 63.3945 57.3203C63.1758 57.3203 62.9023 57.3242 62.5742 57.332C62.2539 57.332 61.9062 57.3398 61.5312 57.3555C61.1641 57.3633 60.7852 57.375 60.3945 57.3906C60.0039 57.3984 59.6328 57.4102 59.2812 57.4258C58.9297 57.4336 58.6094 57.4453 58.3203 57.4609C58.0391 57.4766 57.8203 57.4883 57.6641 57.4961C57.3672 57.5117 57.0664 57.5312 56.7617 57.5547C56.4648 57.5703 56.1719 57.5977 55.8828 57.6367L55.5781 56.8281C55.9375 56.8672 56.2812 56.8984 56.6094 56.9219C56.9453 56.9375 57.293 56.9531 57.6523 56.9688C57.8477 56.9766 58.0938 56.9805 58.3906 56.9805C58.6875 56.9805 59.0117 56.9805 59.3633 56.9805C59.7148 56.9727 60.0781 56.9648 60.4531 56.957C60.8281 56.9414 61.1914 56.9297 61.543 56.9219C61.8945 56.9141 62.2148 56.9062 62.5039 56.8984C62.8008 56.8828 63.0469 56.8711 63.2422 56.8633C63.7812 56.8398 64.293 56.8047 64.7773 56.7578C65.2617 56.7109 65.7188 56.6562 66.1484 56.5938L66.0312 57.3672ZM69.8984 50.9102C70.2578 50.9102 70.6875 50.9023 71.1875 50.8867C71.6875 50.8711 72.1953 50.8516 72.7109 50.8281C73.2266 50.7969 73.7266 50.7617 74.2109 50.7227C74.6953 50.6836 75.1016 50.6406 75.4297 50.5938L75.2891 51.3086C74.8516 51.2852 74.3906 51.2734 73.9062 51.2734C73.4297 51.2656 72.9531 51.2656 72.4766 51.2734C72.0078 51.2734 71.5508 51.2812 71.1055 51.2969C70.6602 51.3125 70.2578 51.3281 69.8984 51.3438V52.3516C69.8984 52.5156 69.9375 52.6289 70.0156 52.6914C70.0938 52.7461 70.2461 52.7773 70.4727 52.7852C70.7695 52.793 71.1406 52.7891 71.5859 52.7734C72.0391 52.7578 72.5117 52.7383 73.0039 52.7148C73.4961 52.6836 73.9844 52.6484 74.4688 52.6094C74.9531 52.5625 75.3828 52.5156 75.7578 52.4688L75.6055 53.1953C75.1133 53.1719 74.5977 53.1602 74.0586 53.1602C73.5273 53.1523 73 53.1523 72.4766 53.1602C71.9609 53.168 71.4688 53.1836 71 53.207C70.5312 53.2227 70.1211 53.2422 69.7695 53.2656C69.5508 53.2812 69.3828 53.2227 69.2656 53.0898C69.1562 52.957 69.1016 52.7891 69.1016 52.5859V50.2188C69.1016 50.0469 69.0898 49.9062 69.0664 49.7969C69.043 49.6875 68.9922 49.5938 68.9141 49.5156C68.8438 49.4375 68.7422 49.3711 68.6094 49.3164C68.4766 49.2617 68.3008 49.2031 68.082 49.1406L68.2109 48.8594C68.5312 48.9141 68.9062 48.957 69.3359 48.9883C69.7734 49.0117 70.2266 49.0273 70.6953 49.0352C71.1719 49.0352 71.6562 49.0312 72.1484 49.0234C72.6406 49.0078 73.1094 48.9883 73.5547 48.9648C74 48.9414 74.4062 48.9141 74.7734 48.8828C75.1484 48.8516 75.4531 48.8164 75.6875 48.7773L75.5469 49.4922C75.0547 49.4688 74.5508 49.4531 74.0352 49.4453C73.5195 49.4375 73.0117 49.4375 72.5117 49.4453C72.0195 49.4453 71.5469 49.4531 71.0938 49.4688C70.6484 49.4844 70.25 49.5039 69.8984 49.5273V50.9102ZM74.4805 56.7109C74.4805 56.9219 74.4766 57.1445 74.4688 57.3789C74.4609 57.6055 74.4492 57.832 74.4336 58.0586C74.418 58.293 74.3984 58.5156 74.375 58.7266C74.3516 58.9375 74.3242 59.125 74.293 59.2891L73.7891 59.3711C73.7656 59.2305 73.7461 59.0664 73.7305 58.8789C73.7227 58.6914 73.7148 58.4961 73.707 58.293C73.707 58.0898 73.7031 57.8867 73.6953 57.6836C73.6953 57.4727 73.6953 57.2812 73.6953 57.1094V54.9062C73.2969 54.9062 72.8633 54.9141 72.3945 54.9297C71.9258 54.9375 71.4688 54.9492 71.0234 54.9648V56.4883C71.0234 56.6992 71.0195 56.9219 71.0117 57.1562C71.0039 57.3828 70.9922 57.6094 70.9766 57.8359C70.9609 58.0625 70.9414 58.2812 70.918 58.4922C70.8945 58.7031 70.8672 58.8906 70.8359 59.0547L70.3438 59.1367C70.3281 58.9961 70.3125 58.832 70.2969 58.6445C70.2891 58.457 70.2812 58.2617 70.2734 58.0586C70.2656 57.8555 70.2617 57.6523 70.2617 57.4492C70.2617 57.2461 70.2617 57.0586 70.2617 56.8867V54.9883C69.9648 55.0039 69.6992 55.0156 69.4648 55.0234C69.2305 55.0312 69.0469 55.0391 68.9141 55.0469C68.6172 55.0625 68.3164 55.082 68.0117 55.1055C67.707 55.1289 67.4102 55.1602 67.1211 55.1992L66.8281 54.3906C67.1875 54.4297 67.5312 54.4609 67.8594 54.4844C68.1875 54.5 68.5352 54.5156 68.9023 54.5312C69.0977 54.5391 69.3477 54.543 69.6523 54.543C69.9648 54.543 70.3047 54.543 70.6719 54.543C71.0469 54.5352 71.4297 54.5273 71.8203 54.5195C72.2188 54.5039 72.6016 54.4922 72.9688 54.4844C73.3359 54.4766 73.6719 54.4688 73.9766 54.4609C74.2812 54.4453 74.5312 54.4336 74.7266 54.4258C75.2656 54.4023 75.7773 54.3711 76.2617 54.332C76.7539 54.2852 77.2109 54.2305 77.6328 54.168L77.5156 54.9414C77.2031 54.9258 76.8164 54.9141 76.3555 54.9062C75.9023 54.8984 75.4102 54.8906 74.8789 54.8828C74.8242 54.8828 74.7656 54.8828 74.7031 54.8828C74.6406 54.8828 74.5664 54.8867 74.4805 54.8945V56.7109ZM86.5273 49.4336C86.5273 49.168 86.4062 48.957 86.1641 48.8008C85.9297 48.6367 85.5625 48.4961 85.0625 48.3789L85.2031 48.0625C85.5938 48.1094 85.9883 48.1719 86.3867 48.25C86.7852 48.3203 87.1367 48.3867 87.4414 48.4492C87.4102 48.5898 87.3828 48.75 87.3594 48.9297C87.3359 49.1094 87.3242 49.2773 87.3242 49.4336V55.9961C87.3242 56.2383 87.3164 56.5156 87.3008 56.8281C87.293 57.1406 87.2812 57.4531 87.2656 57.7656C87.25 58.0781 87.2266 58.375 87.1953 58.6562C87.1719 58.9375 87.1445 59.168 87.1133 59.3477L86.6211 59.4062C86.6055 59.2734 86.5898 59.1055 86.5742 58.9023C86.5664 58.707 86.5586 58.4922 86.5508 58.2578C86.543 58.0312 86.5352 57.7969 86.5273 57.5547C86.5273 57.3125 86.5273 57.0781 86.5273 56.8516V54.4492C86.1758 54.5977 85.7578 54.75 85.2734 54.9062C84.7891 55.0547 84.2852 55.1992 83.7617 55.3398C83.2383 55.4805 82.7227 55.6055 82.2148 55.7148C81.7148 55.8242 81.2734 55.9062 80.8906 55.9609C80.5391 56.0078 80.2891 55.9648 80.1406 55.832C79.9922 55.6992 79.918 55.4492 79.918 55.082V51.6602C79.918 51.5039 79.9062 51.3711 79.8828 51.2617C79.8594 51.1523 79.8086 51.0586 79.7305 50.9805C79.6602 50.9023 79.5547 50.832 79.4141 50.7695C79.2812 50.707 79.1055 50.6445 78.8867 50.582L79.0156 50.2891C79.4453 50.3516 79.8984 50.3945 80.375 50.418C80.8516 50.4336 81.332 50.4336 81.8164 50.418C82.3008 50.3945 82.7734 50.3594 83.2344 50.3125C83.7031 50.2656 84.1367 50.207 84.5352 50.1367L84.3945 50.8398C83.6523 50.8086 82.9688 50.8047 82.3438 50.8281C81.7266 50.8516 81.1836 50.8828 80.7148 50.9219V54.8477C80.7148 55.0039 80.7578 55.1133 80.8438 55.1758C80.9297 55.2305 81.0391 55.25 81.1719 55.2344C81.4844 55.2109 81.8711 55.1641 82.332 55.0938C82.8008 55.0156 83.2852 54.9258 83.7852 54.8242C84.293 54.7148 84.7891 54.5977 85.2734 54.4727C85.7578 54.3398 86.1758 54.2109 86.5273 54.0859V49.4336ZM95.4336 49.5508C95.8008 49.5898 96.1406 49.6797 96.4531 49.8203C96.7656 49.9531 97.0352 50.1328 97.2617 50.3594C97.4883 50.5781 97.6641 50.832 97.7891 51.1211C97.9219 51.4023 97.9883 51.707 97.9883 52.0352C97.9883 52.3633 97.9258 52.6719 97.8008 52.9609C97.6758 53.2422 97.5 53.4922 97.2734 53.7109C97.0547 53.9219 96.7891 54.0977 96.4766 54.2383C96.1719 54.3789 95.8398 54.4688 95.4805 54.5078V56.9922C95.8867 56.9766 96.2617 56.9648 96.6055 56.957C96.9492 56.9414 97.2305 56.9297 97.4492 56.9219C97.9883 56.8984 98.5 56.8633 98.9844 56.8164C99.4688 56.7695 99.9258 56.7148 100.355 56.6523L100.238 57.4258C99.9258 57.4102 99.5391 57.4023 99.0781 57.4023C98.625 57.3945 98.1328 57.3867 97.6016 57.3789C97.3828 57.3789 97.1094 57.3828 96.7812 57.3906C96.4609 57.3906 96.1133 57.3984 95.7383 57.4141C95.3711 57.4219 94.9922 57.4336 94.6016 57.4492C94.2109 57.457 93.8398 57.4688 93.4883 57.4844C93.1367 57.4922 92.8164 57.5039 92.5273 57.5195C92.2461 57.5352 92.0273 57.5469 91.8711 57.5547C91.5742 57.5703 91.2734 57.5898 90.9688 57.6133C90.6719 57.6289 90.3789 57.6562 90.0898 57.6953L89.7852 56.8867C90.1445 56.9258 90.4883 56.957 90.8164 56.9805C91.1523 56.9961 91.5 57.0117 91.8594 57.0273C92.0078 57.0352 92.1875 57.0391 92.3984 57.0391C92.6094 57.0391 92.8398 57.0391 93.0898 57.0391C93.3398 57.0391 93.6016 57.0391 93.875 57.0391C94.1484 57.0312 94.4258 57.0234 94.707 57.0156V54.5195C94.332 54.4883 93.9883 54.4062 93.6758 54.2734C93.3633 54.1328 93.0938 53.9531 92.8672 53.7344C92.6406 53.5156 92.4609 53.2617 92.3281 52.9727C92.2031 52.6836 92.1406 52.3711 92.1406 52.0352C92.1406 51.6914 92.207 51.3711 92.3398 51.0742C92.4805 50.7773 92.6719 50.5195 92.9141 50.3008C93.1641 50.0742 93.4531 49.8945 93.7812 49.7617C94.1172 49.6211 94.4805 49.543 94.8711 49.5273C94.8633 49.418 94.8203 49.3281 94.7422 49.2578C94.6719 49.1875 94.5312 49.1211 94.3203 49.0586L94.4609 48.8242C94.6562 48.8633 94.8477 48.8984 95.0352 48.9297C95.2227 48.9531 95.418 48.9883 95.6211 49.0352C95.5898 49.1133 95.5547 49.1953 95.5156 49.2812C95.4766 49.3594 95.4492 49.4492 95.4336 49.5508ZM97.1211 52C97.1211 51.7188 97.0664 51.457 96.957 51.2148C96.8555 50.9648 96.7148 50.7461 96.5352 50.5586C96.3555 50.3711 96.1406 50.2266 95.8906 50.125C95.6406 50.0156 95.3711 49.9609 95.082 49.9609C94.793 49.9609 94.5234 50.0156 94.2734 50.125C94.0234 50.2266 93.8047 50.3711 93.6172 50.5586C93.4375 50.7461 93.293 50.9648 93.1836 51.2148C93.082 51.457 93.0312 51.7188 93.0312 52C93.0312 52.2891 93.082 52.5586 93.1836 52.8086C93.293 53.0508 93.4375 53.2656 93.6172 53.4531C93.8047 53.6328 94.0234 53.7734 94.2734 53.875C94.5234 53.9766 94.793 54.0273 95.082 54.0273C95.3711 54.0273 95.6406 53.9766 95.8906 53.875C96.1406 53.7734 96.3555 53.6328 96.5352 53.4531C96.7227 53.2656 96.8672 53.0508 96.9688 52.8086C97.0703 52.5586 97.1211 52.2891 97.1211 52Z" fill="#2D2D2D"/>
<path d="M0.683875 35C0.459875 35 0.427875 34.712 0.715875 34.712H0.907875C2.34788 34.68 3.24388 34.136 3.27588 28.984C3.27588 23.064 3.30788 17.496 3.30788 15.672C3.30788 15.064 3.21188 14.456 2.85988 14.072C2.28387 13.432 1.61188 13.08 0.811875 13.08H0.651875C0.427875 13.08 0.427875 12.824 0.651875 12.824C2.95588 12.824 3.69188 12.6 3.91588 12.6C4.07588 12.6 4.26788 12.664 4.33188 12.792C4.55588 13.208 5.16388 14.136 5.61188 14.776L13.7399 26.68L20.4279 16.024C21.1319 14.904 21.6119 14.136 21.9319 13.592C22.4439 12.856 22.5719 12.664 22.8599 12.664C23.3399 12.664 25.7719 12.824 26.3159 12.824C26.5719 12.824 26.5719 13.112 26.3159 13.112H25.8359C24.2679 13.112 24.1079 13.24 24.1079 18.936V28.152C24.1079 34.584 24.2679 34.712 25.8359 34.712H26.3159C26.5719 34.712 26.5719 35 26.3159 35C25.4199 35 23.3399 34.904 22.8919 34.904C22.4119 34.904 20.8439 35 19.9479 35C19.6919 35 19.6919 34.712 19.9479 34.712H20.5879C22.1559 34.712 22.3159 34.584 22.3159 28.152V14.872C22.3159 14.52 22.2199 14.392 22.0919 14.392C21.9639 14.392 21.8039 14.584 21.3879 15.224L13.3559 28.024C13.2599 28.216 13.1639 28.28 13.0359 28.28H12.8439C12.7479 28.28 12.6519 28.216 12.5239 28.024L3.72388 15.192L3.69188 29.048C3.65988 34.584 5.48388 34.712 7.05188 34.712H7.49988C7.72388 34.712 7.72388 35 7.49988 35C6.57188 35.032 3.75588 34.904 3.27588 34.904C2.79588 34.904 1.57988 35 0.683875 35ZM32.2949 35.352C29.7349 35.352 28.0709 33.72 28.0709 31.704C28.0709 29.4 30.0869 27.448 35.5269 25.368L39.2389 23.96C39.1109 20.312 37.9909 18.968 35.3669 18.968C34.4069 18.968 33.6709 19.192 32.9349 19.608C31.8469 20.28 31.3029 21.4 30.8549 22.2C30.5029 22.776 30.2469 23 29.4789 23C28.8389 23 28.4869 22.744 28.4869 22.36C28.4869 21.976 28.8069 21.496 29.4789 20.984C30.5669 20.152 33.1909 18.68 35.6229 18.68C38.8869 18.68 41.0309 20.44 41.0309 24.184C41.0309 26.648 40.7749 30.264 40.7749 32.088C40.7749 33.56 41.0309 34.424 41.7349 34.424C42.4069 34.424 43.3669 33.304 43.6869 32.472C43.8149 32.184 44.2629 32.44 44.0709 32.728C43.5589 33.464 41.7989 35.32 40.6149 35.32C39.4949 35.32 38.8869 34.584 38.8869 33.048C38.8869 32.216 38.9509 30.808 39.0149 30.072C38.3429 31.512 35.1109 35.352 32.2949 35.352ZM29.8309 30.936C29.8309 32.856 31.3669 34.296 33.4789 34.296C35.9109 34.296 38.7589 30.52 39.0469 29.464C39.0789 29.08 39.2389 26.68 39.2389 24.632V24.184L35.4949 25.688C31.7509 27.192 29.8309 28.408 29.8309 30.936ZM49.3619 44.728C45.7139 44.76 43.8579 42.936 43.8579 40.696C43.8579 38.072 46.6099 36.056 49.2019 35.128C46.7699 35.096 44.9459 34.584 44.9459 33.048C44.9459 31.64 47.0259 30.296 49.5859 29.88C46.8339 29.432 44.9779 27.608 44.9779 24.536C44.9779 21.272 47.9219 18.744 51.6659 18.744C54.8019 18.744 58.2259 17.688 59.0259 17.688C59.3779 17.688 59.9219 17.784 59.9219 18.104C59.9219 18.584 59.4419 19.352 58.6419 19.352C57.6819 19.352 54.8339 18.936 52.5619 18.936V19C55.6979 19.448 57.7459 21.592 57.7459 24.472C57.7459 27.864 54.8659 29.976 50.9939 29.976C50.8019 29.976 50.6099 29.976 50.4499 29.944C48.4979 30.104 46.3539 30.968 46.3539 32.184C46.3539 33.496 48.2419 33.624 50.4179 33.624H55.6979C59.0259 33.624 60.2099 35.224 60.2099 37.016C60.2099 40.952 54.2899 44.76 49.3619 44.728ZM51.3139 29.656C53.9379 29.656 55.9539 28.024 55.9539 24.472C55.9539 21.496 54.0019 19.064 51.4739 19.064C48.7219 19.064 46.8019 20.792 46.8019 24.28C46.8019 27.64 48.6899 29.656 51.3139 29.656ZM45.0739 39.736C45.0739 41.88 47.2499 43.416 50.9619 43.416C55.2179 43.416 59.4099 41.048 59.4099 37.976C59.4099 35.96 58.1619 35.128 54.7059 35.128H49.9059C47.0899 35.96 45.0739 37.752 45.0739 39.736ZM68.7166 35.32C66.7966 35.32 65.2926 34.744 64.2686 34.168V43.416H66.7966C67.0526 43.416 67.0526 43.704 66.7966 43.704C66.5406 43.704 63.6926 43.64 63.1806 43.64C62.7006 43.64 61.0686 43.704 60.1406 43.704C59.8846 43.704 59.8846 43.416 60.1406 43.416C62.3166 43.416 62.5086 43.16 62.5086 39.672V22.296C62.5086 20.056 62.0606 20.12 60.3646 20.536C60.1086 20.568 60.0766 20.312 60.3326 20.248C61.9006 19.96 62.9566 19.256 63.8526 18.68C63.9486 18.616 64.2686 18.712 64.2686 18.84V22.104C65.9966 19.96 68.2366 18.68 70.8286 18.68C74.4766 18.68 77.6446 21.688 77.6446 26.2C77.6446 31.352 73.1006 35.32 68.7166 35.32ZM69.7086 19.64C67.5646 19.64 65.6446 20.76 64.2686 22.456V32.312C65.8366 33.496 67.7886 34.616 69.9006 34.616C73.3566 34.616 75.9166 31.832 75.9166 27.224C75.9166 23.256 73.7086 19.64 69.7086 19.64ZM81.9961 15.224C81.2601 15.224 80.6841 14.648 80.6841 13.912C80.6841 13.176 81.2601 12.568 81.9961 12.568C82.7321 12.568 83.3401 13.176 83.3401 13.912C83.3401 14.648 82.7321 15.224 81.9961 15.224ZM79.2761 35C79.0201 35 79.0201 34.712 79.2761 34.712C81.1001 34.712 81.2281 34.36 81.2281 32.12V22.36C81.2281 20.28 80.8761 20.184 79.1801 20.6C78.9241 20.664 78.8601 20.408 79.1161 20.344C80.6521 19.992 81.6121 19.448 82.6041 18.744C82.7001 18.68 83.0201 18.776 83.0201 18.904V32.12C83.0201 34.36 83.1481 34.712 84.9401 34.712C85.1961 34.712 85.1961 35 84.9401 35C84.0121 35 82.6681 34.936 82.1881 34.936C81.7081 34.936 80.2041 35 79.2761 35ZM94.5441 35.32C89.4241 35.32 86.4161 32.024 86.4161 27.608C86.4161 22.68 90.6401 18.68 95.1841 18.68C99.5681 18.68 100.848 21.272 100.752 22.776C100.72 23.512 100.272 23.992 99.1201 23.992H88.3041C88.0801 24.824 87.9521 25.752 87.9521 26.808C87.9521 30.744 90.9921 34.008 95.6321 34.008C99.7601 34.008 102.352 31.416 104.112 27.256C104.272 26.904 104.464 27.032 104.336 27.32C103.248 30.04 101.552 32.408 99.3441 33.848C97.9361 34.776 96.3361 35.32 94.5441 35.32ZM94.4801 19.256C91.5361 19.256 89.2641 20.824 88.3681 23.736C92.0481 23.736 95.0241 23.64 97.1041 23.608C97.7121 23.576 98.2881 23.352 98.3841 23.256C98.5761 23 98.6401 22.68 98.6401 22.296C98.6401 21.016 97.3601 19.256 94.4801 19.256Z" fill="black"/>
</svg>
