<svg width="80" height="80" viewBox="0 0 80 80" fill="none" xmlns="http://www.w3.org/2000/svg">
<rect x="2" y="2" width="76" height="76" rx="38" fill="white"/>
<rect x="2" y="2" width="76" height="76" rx="38" stroke="url(#paint0_linear_917_470)" stroke-width="4"/>
<path d="M20.3086 59.8857C19.5099 59.9238 18.8825 59.9619 18.4261 60H17.3423C17.1141 60 17 59.9238 17 59.7714C17 59.581 17.1331 59.4857 17.3993 59.4857H17.7416C19.4149 59.4476 20.5177 58.6667 21.0501 57.1429C21.6206 55.581 21.9248 52.9524 21.9628 49.2571V41.8286C21.9628 39.1619 21.9818 35.6381 22.0199 31.2571V25.4857C22.0199 24.8 21.9438 24.2286 21.7917 23.7714C21.6776 23.3143 21.4875 22.9333 21.2213 22.6286C20.6888 22.019 20.1184 21.581 19.5099 21.3143C18.9015 21.0095 18.255 20.8571 17.5704 20.8571H17.2852C17.0951 20.8571 17 20.781 17 20.6286C17 20.4762 17.0951 20.4 17.2852 20.4C18.35 20.4 19.3008 20.381 20.1374 20.3429C21.0121 20.2667 21.8487 20.1714 22.6474 20.0571C22.7995 20.019 22.8946 20 22.9326 20H23.1037C23.2558 20 23.4079 20.0381 23.5601 20.1143C23.7122 20.1524 23.8073 20.2286 23.8453 20.3429C24.0354 20.6857 24.3397 21.2 24.758 21.8857C25.2143 22.5714 25.6707 23.2381 26.127 23.8857L40.6162 45.1429L41.0117 45.7151L39.9317 47.5429C39.8556 47.6952 39.7606 47.8095 39.6465 47.8857C39.5704 47.9619 39.4754 48 39.3613 48H39.019C38.9429 48 38.8479 47.9619 38.7338 47.8857C38.6577 47.8095 38.5626 47.6952 38.4486 47.5429L22.7614 24.6286L22.7044 49.3714C22.7044 50.819 22.7614 52.1143 22.8755 53.2571C23.0277 54.3619 23.2368 55.3143 23.503 56.1143C23.9213 57.2952 24.4918 58.1524 25.2143 58.6857C25.9749 59.219 27.1348 59.4857 28.694 59.4857H29.4926C29.6828 59.4857 29.7779 59.581 29.7779 59.7714C29.7779 59.9238 29.6828 60 29.4926 60H27.7243C26.9637 60 25.7087 59.9619 23.9594 59.8857C23.2368 59.8476 22.7424 59.8286 22.4762 59.8286H21.4494C21.2213 59.8286 20.841 59.8476 20.3086 59.8857Z" fill="black"/>
<path d="M56.3033 20.3429C56.4935 20.1905 56.6836 20.1143 56.8738 20.1143C57.0259 20.1143 57.2921 20.1333 57.6724 20.1714C58.0527 20.1714 58.7562 20.1905 59.783 20.2286C60.9239 20.3048 61.7035 20.3619 62.1218 20.4H63.0345C63.2627 20.4 63.3768 20.4952 63.3768 20.6857C63.3768 20.8381 63.2627 20.9143 63.0345 20.9143H62.1789C60.9239 20.9143 60.1253 21.2 59.783 21.7714C59.4788 22.3429 59.2887 23.4667 59.2126 25.1429C59.1746 25.7905 59.1365 26.5905 59.0985 27.5429V50.4C59.0985 51.1238 59.1175 51.7714 59.1555 52.3429C59.1555 53.4095 59.1746 54.3048 59.2126 55.0286C59.2506 55.7143 59.3077 56.3048 59.3837 56.8C59.4978 57.8286 59.707 58.5333 60.0112 58.9143C60.3535 59.2952 61.076 59.4857 62.1789 59.4857H63.0345C63.2627 59.4857 63.3768 59.581 63.3768 59.7714C63.3768 59.9238 63.2627 60 63.0345 60H61.6655C61.1331 59.9619 60.2584 59.9238 59.0415 59.8857C58.2809 59.8476 57.7675 59.8286 57.5013 59.8286H56.3604C56.1322 59.8286 55.6949 59.8476 55.0484 59.8857C54.0596 59.9238 53.318 59.9619 52.8237 60H51.6828C51.4546 60 51.3405 59.9238 51.3405 59.7714C51.3405 59.581 51.4546 59.4857 51.6828 59.4857H52.8237C53.8885 59.4857 54.573 59.3143 54.8772 58.9714C55.2195 58.5905 55.4667 57.9048 55.6188 56.9143C55.6949 56.419 55.7519 55.8095 55.79 55.0857C55.828 54.3238 55.866 53.3905 55.904 52.2857V21.7391C55.904 20.6849 56.1697 20.4581 56.2765 20.3668C56.2872 20.3577 56.2963 20.3499 56.3033 20.3429Z" fill="black"/>
<path d="M50.6232 34.4928C50.6232 36.0936 49.3255 37.3913 47.7246 37.3913C46.1238 37.3913 44.8261 36.0936 44.8261 34.4928C44.8261 32.8919 46.1238 31.5942 47.7246 31.5942C49.3255 31.5942 50.6232 32.8919 50.6232 34.4928Z" fill="#0012B7"/>
<defs>
<linearGradient id="paint0_linear_917_470" x1="5.21541e-07" y1="80.0001" x2="80.9995" y2="78.9749" gradientUnits="userSpaceOnUse">
<stop stop-color="#0012B7"/>
<stop offset="1" stop-color="#0012B7" stop-opacity="0.45"/>
</linearGradient>
</defs>
</svg>
