<svg width="80" height="69" viewBox="0 0 80 69" fill="none" xmlns="http://www.w3.org/2000/svg">
<path d="M5.70726 68.8029C4.32964 68.8686 3.24723 68.9343 2.46002 69H0.590406C0.196802 69 0 68.8686 0 68.6057C0 68.2771 0.229602 68.1129 0.688807 68.1129H1.27921C4.16564 68.0471 6.06806 66.7 6.98647 64.0714C7.97048 61.3771 8.49529 56.8429 8.56089 50.4686V37.6543C8.56089 33.0543 8.59369 26.9757 8.65929 19.4186V9.46286C8.65929 8.28 8.52809 7.29429 8.26568 6.50572C8.06888 5.71715 7.74088 5.06 7.28167 4.53429C6.36326 3.48286 5.37925 2.72714 4.32964 2.26714C3.28003 1.74143 2.16482 1.47857 0.98401 1.47857H0.492005C0.164002 1.47857 0 1.34714 0 1.08429C0 0.821432 0.164002 0.690003 0.492005 0.690003C2.32882 0.690003 3.96884 0.657146 5.41205 0.591433C6.92087 0.460002 8.36408 0.295714 9.7417 0.0985702C10.0041 0.0328567 10.1681 0 10.2337 0H10.5289C10.7913 0 11.0537 0.0657154 11.3161 0.197146C11.5785 0.26286 11.7425 0.394288 11.8081 0.591433C12.1361 1.18286 12.6609 2.07 13.3825 3.25286C14.1697 4.43571 14.9569 5.58571 15.7442 6.70286L40.738 43.3714L41.4202 44.3586L39.5572 47.5114C39.426 47.7743 39.262 47.9714 39.0652 48.1029C38.934 48.2343 38.77 48.3 38.5732 48.3H37.9828C37.8516 48.3 37.6876 48.2343 37.4908 48.1029C37.3596 47.9714 37.1956 47.7743 36.9988 47.5114L9.9385 7.98429L9.8401 50.6657C9.8401 53.1629 9.9385 55.3971 10.1353 57.3686C10.3977 59.2743 10.7585 60.9171 11.2177 62.2971C11.9393 64.3343 12.9233 65.8129 14.1697 66.7329C15.4818 67.6529 17.4826 68.1129 20.1722 68.1129H21.5498C21.8778 68.1129 22.0418 68.2771 22.0418 68.6057C22.0418 68.8686 21.8778 69 21.5498 69H18.4994C17.1874 69 15.0225 68.9343 12.0049 68.8029C10.7585 68.7371 9.9057 68.7043 9.4465 68.7043H7.67528C7.28167 68.7043 6.62567 68.7371 5.70726 68.8029Z" fill="black"/>
<path d="M67.7983 0.591433C68.1263 0.328575 68.4543 0.197146 68.7823 0.197146C69.0447 0.197146 69.5039 0.230003 70.1599 0.295716C70.8159 0.295716 72.0295 0.328573 73.8007 0.394286C75.7688 0.525717 77.1136 0.624289 77.8352 0.690003H79.4096C79.8032 0.690003 80 0.854288 80 1.18286C80 1.44572 79.8032 1.57715 79.4096 1.57715H77.9336C75.7688 1.57715 74.3912 2.07 73.8007 3.05572C73.2759 4.04143 72.9479 5.98 72.8167 8.87143C72.7511 9.98857 72.6855 11.3686 72.6199 13.0114V52.44C72.6199 53.6886 72.6527 54.8057 72.7183 55.7914C72.7183 57.6314 72.7511 59.1757 72.8167 60.4243C72.8823 61.6071 72.9807 62.6257 73.1119 63.48C73.3087 65.2543 73.6695 66.47 74.1943 67.1271C74.7848 67.7843 76.0312 68.1129 77.9336 68.1129H79.4096C79.8032 68.1129 80 68.2771 80 68.6057C80 68.8686 79.8032 69 79.4096 69H77.048C76.1296 68.9343 74.6207 68.8686 72.5215 68.8029C71.2095 68.7371 70.3239 68.7043 69.8647 68.7043H67.8967C67.5031 68.7043 66.7487 68.7371 65.6335 68.8029C63.9278 68.8686 62.6486 68.9343 61.7958 69H59.8278C59.4342 69 59.2374 68.8686 59.2374 68.6057C59.2374 68.2771 59.4342 68.1129 59.8278 68.1129H61.7958C63.6326 68.1129 64.8134 67.8171 65.3382 67.2257C65.9287 66.5686 66.3551 65.3857 66.6175 63.6771C66.7487 62.8229 66.8471 61.7714 66.9127 60.5229C66.9783 59.2086 67.0439 57.5986 67.1095 55.6929V3C67.1095 1.18141 67.5677 0.790146 67.752 0.632741C67.7704 0.617051 67.7861 0.603658 67.7983 0.591433Z" fill="black"/>
<path d="M58 25C58 27.7614 55.7614 30 53 30C50.2386 30 48 27.7614 48 25C48 22.2386 50.2386 20 53 20C55.7614 20 58 22.2386 58 25Z" fill="#0012B7"/>
</svg>
